<?xml version="1.0" standalone="no"?>
<!DOCTYPE svg PUBLIC "-//W3C//DTD SVG 20010904//EN"
 "http://www.w3.org/TR/2001/REC-SVG-20010904/DTD/svg10.dtd">
<svg version="1.0" xmlns="http://www.w3.org/2000/svg"
 width="550.000000pt" height="550.000000pt" viewBox="0 0 550.000000 550.000000"
 preserveAspectRatio="xMidYMid meet">
<metadata>
Created by potrace 1.11, written by Peter Selinger 2001-2013
</metadata>
<g transform="translate(0.000000,550.000000) scale(0.100000,-0.100000)"
fill="#000000" stroke="none">
<path d="M1254 3785 c-49 -13 -114 -32 -144 -43 -96 -35 -463 -194 -670 -290
-36 -17 -104 -48 -152 -70 -49 -23 -88 -43 -88 -47 0 -5 166 -378 247 -555 14
-30 51 -113 83 -185 32 -71 71 -159 88 -195 16 -36 53 -117 82 -180 29 -63 54
-117 55 -118 2 -2 24 10 49 28 26 17 51 28 56 25 6 -3 10 1 10 9 0 14 35 33
53 28 4 -1 7 4 7 11 0 11 36 34 139 92 20 11 38 23 41 26 12 13 38 17 49 6 9
-9 11 -8 6 5 -5 13 1 18 32 24 43 8 88 8 118 1 11 -3 28 -6 38 -6 11 -1 15 -6
11 -13 -4 -6 -3 -8 4 -4 12 7 93 -22 104 -38 4 -6 8 -7 8 -3 0 4 9 3 20 -3 11
-6 18 -15 15 -20 -3 -4 3 -6 13 -4 9 3 27 -4 38 -15 12 -11 24 -17 27 -14 3 3
18 -4 34 -15 15 -11 31 -19 35 -18 4 0 18 -8 30 -19 13 -10 24 -18 26 -16 4 4
214 -100 222 -109 3 -3 46 -26 95 -49 50 -24 93 -48 97 -55 4 -6 8 -7 8 -3 0
4 9 3 20 -3 11 -6 18 -15 15 -20 -3 -6 1 -7 9 -4 24 9 76 -23 70 -44 -4 -10
-2 -13 3 -7 12 15 33 17 33 3 0 -6 3 -9 6 -6 5 6 187 -82 212 -103 6 -5 12 -7
12 -3 0 3 7 1 15 -6 8 -7 15 -10 15 -6 0 3 17 -1 38 -9 20 -8 48 -17 62 -19
14 -3 27 -5 29 -5 2 -1 -2 -9 -10 -18 -12 -17 -12 -17 5 -2 13 12 26 15 45 10
14 -4 43 -7 64 -7 20 1 37 -3 37 -7 0 -5 5 -5 11 -2 18 12 59 13 59 1 0 -7 3
-7 8 1 4 7 23 14 43 16 19 2 40 7 47 11 7 4 12 4 12 -1 0 -4 4 -2 9 6 8 12 12
13 25 1 14 -11 16 -10 10 4 -4 11 -1 16 10 16 9 0 17 -1 19 -2 2 -2 11 5 21
15 10 9 21 15 26 12 5 -3 10 -2 12 3 4 9 89 60 102 60 5 0 13 8 18 17 8 13 13
14 24 4 12 -10 13 -9 8 5 -4 10 -1 16 9 16 8 0 17 4 19 8 6 15 80 52 90 46 6
-4 8 -2 5 3 -8 13 40 46 53 38 6 -3 10 0 10 7 0 8 14 22 31 32 22 13 29 14 24
5 -5 -8 6 1 24 19 19 18 36 31 38 28 3 -2 13 3 24 12 11 9 22 16 25 14 3 -2
14 6 24 18 12 13 24 19 32 14 7 -4 10 -4 6 1 -10 11 29 38 42 30 6 -3 10 0 10
8 0 7 27 28 60 47 33 19 60 38 60 42 0 5 5 6 10 3 6 -3 10 -2 10 2 0 5 22 22
50 38 27 17 50 33 50 38 0 4 5 7 10 7 6 0 29 13 51 30 23 16 45 27 50 24 5 -3
9 -1 9 5 0 11 49 48 70 53 7 2 21 10 31 18 43 37 51 41 69 43 10 1 17 4 14 8
-2 4 7 14 21 23 14 9 25 13 25 9 0 -5 5 0 11 10 6 9 14 15 19 12 4 -3 11 2 14
11 4 10 13 13 28 9 16 -4 19 -3 10 3 -10 7 -7 13 13 26 14 9 31 14 37 10 6 -4
8 -3 5 3 -4 6 11 22 33 37 22 14 40 23 40 19 0 -5 5 0 11 10 6 9 14 15 19 12
4 -3 11 2 14 11 3 8 10 12 16 9 5 -3 10 -2 10 3 0 16 80 61 98 56 13 -5 14 -4
3 4 -15 11 2 27 19 17 6 -3 10 0 10 7 1 12 178 137 230 163 11 5 20 13 20 18
0 4 5 5 10 2 6 -3 10 -1 10 6 0 7 2 10 5 7 3 -3 24 12 47 33 23 21 44 36 46
34 3 -2 13 7 24 20 11 14 24 23 29 19 5 -3 8 -2 7 3 -4 13 56 93 67 89 6 -2
11 7 12 20 4 44 6 54 13 54 4 0 3 25 -1 56 -15 114 -118 200 -248 207 -77 5
-178 -18 -274 -62 -26 -12 -53 -19 -59 -15 -6 4 -8 3 -5 -3 3 -5 -7 -17 -22
-26 l-29 -17 -4 55 c-5 61 -35 113 -81 140 -120 71 -341 38 -480 -73 l-37 -30
-53 52 c-63 62 -113 88 -181 91 -118 5 -219 -40 -586 -259 -202 -121 -208
-126 -155 -127 346 -7 399 -10 413 -21 13 -11 14 -11 7 1 -5 9 -4 12 2 8 8 -5
56 -13 128 -22 11 -1 21 -4 23 -5 1 -1 6 -3 11 -4 5 0 12 -4 16 -8 4 -4 12 -5
18 -3 17 6 102 -40 100 -53 -2 -6 3 -9 10 -6 20 7 74 -52 105 -116 22 -45 27
-70 29 -141 2 -103 -22 -186 -54 -181 -14 2 -15 1 -4 -7 19 -12 6 -45 -15 -37
-9 3 -12 2 -9 -5 4 -5 -5 -22 -19 -36 -14 -14 -26 -23 -26 -20 0 3 -11 -5 -25
-19 -14 -14 -30 -22 -35 -19 -6 3 -10 3 -10 -2 0 -12 -51 -33 -63 -26 -6 3 -7
2 -4 -4 3 -5 -22 -18 -56 -28 -34 -11 -69 -21 -77 -24 -8 -2 -249 -6 -535 -8
-494 -2 -524 -2 -593 17 -126 35 -361 166 -346 193 4 7 3 9 -1 4 -17 -15 -119
68 -108 87 3 6 3 8 -2 4 -8 -8 -69 31 -62 39 3 2 19 -3 36 -11 17 -9 33 -16
36 -16 26 1 29 -1 18 -8 -6 -4 6 -8 29 -8 22 -1 43 -5 47 -10 3 -5 11 -10 16
-10 6 -1 48 -12 95 -25 47 -13 88 -22 93 -21 4 1 7 -1 7 -6 0 -4 21 -8 47 -10
26 -1 50 -6 53 -10 3 -4 28 -8 55 -10 82 -5 90 -8 87 -28 -2 -15 -1 -16 7 -4
5 8 7 18 5 22 -3 4 2 8 10 8 9 0 16 -4 16 -10 0 -5 5 -10 11 -10 5 0 8 4 5 8
-6 10 55 9 72 -1 6 -5 12 -4 12 0 0 11 130 11 148 0 6 -5 12 -4 12 1 0 11 61
9 80 -3 9 -6 11 -4 6 4 -11 18 26 10 42 -9 11 -13 12 -13 10 0 -3 17 33 22 45
5 5 -7 9 -7 15 1 8 13 42 14 42 2 0 -5 5 -6 12 -2 23 14 102 10 116 -6 11 -13
12 -13 10 0 -3 17 33 22 45 5 5 -7 9 -7 15 1 8 13 42 14 42 2 0 -5 5 -6 11 -2
6 3 50 8 98 11 107 5 129 7 137 16 4 4 18 7 30 7 13 0 26 5 29 10 3 6 11 10
16 10 6 0 8 -4 4 -9 -3 -5 -1 -13 5 -16 6 -4 10 -3 9 2 -4 21 2 33 16 33 9 0
18 7 21 15 4 8 12 15 19 15 13 0 51 50 47 63 -1 4 2 7 7 7 10 0 6 78 -5 114
-15 50 -80 91 -160 102 -27 3 -58 8 -69 10 -11 2 -108 6 -215 9 -187 5 -298
12 -330 20 -8 2 -31 7 -50 10 -180 30 -399 127 -584 259 -376 268 -523 359
-653 404 -131 46 -260 51 -399 17z"/>
<path d="M3550 3220 c0 -5 5 -10 11 -10 5 0 7 5 4 10 -3 6 -8 10 -11 10 -2 0
-4 -4 -4 -10z"/>
<path d="M5345 3219 c-3 -4 2 -6 10 -5 21 3 28 13 10 13 -9 0 -18 -4 -20 -8z"/>
<path d="M5307 3199 c7 -7 15 -10 18 -7 3 3 -2 9 -12 12 -14 6 -15 5 -6 -5z"/>
<path d="M3386 3182 c-3 -5 1 -9 9 -9 8 0 12 4 9 9 -3 4 -7 8 -9 8 -2 0 -6 -4
-9 -8z"/>
<path d="M3393 3145 c0 -8 4 -12 9 -9 5 3 6 10 3 15 -9 13 -12 11 -12 -6z"/>
<path d="M3740 3146 c0 -2 8 -10 18 -17 15 -13 16 -12 3 4 -13 16 -21 21 -21
13z"/>
<path d="M3455 3131 c-3 -5 -2 -12 3 -15 5 -3 9 1 9 9 0 17 -3 19 -12 6z"/>
<path d="M5319 3118 c-5 -18 -6 -38 -1 -34 7 8 12 36 6 36 -2 0 -4 -1 -5 -2z"/>
<path d="M5399 3118 c-5 -18 -6 -38 -1 -34 7 8 12 36 6 36 -2 0 -4 -1 -5 -2z"/>
<path d="M3756 3098 c3 -5 10 -6 15 -3 13 9 11 12 -6 12 -8 0 -12 -4 -9 -9z"/>
<path d="M5276 3102 c-3 -5 1 -9 9 -9 8 0 12 4 9 9 -3 4 -7 8 -9 8 -2 0 -6 -4
-9 -8z"/>
<path d="M5344 3102 c4 -3 14 -7 22 -8 9 -1 13 0 10 4 -4 3 -14 7 -22 8 -9 1
-13 0 -10 -4z"/>
<path d="M5189 3063 c-13 -16 -12 -17 4 -4 16 13 21 21 13 21 -2 0 -10 -8 -17
-17z"/>
<path d="M5105 3059 c-3 -4 2 -6 10 -5 21 3 28 13 10 13 -9 0 -18 -4 -20 -8z"/>
<path d="M5155 3061 c-3 -5 -2 -12 3 -15 5 -3 9 1 9 9 0 17 -3 19 -12 6z"/>
<path d="M4994 2866 c1 -8 5 -18 8 -22 4 -3 5 1 4 10 -1 8 -5 18 -8 22 -4 3
-5 -1 -4 -10z"/>
<path d="M4856 2827 c3 -10 9 -15 12 -12 3 3 0 11 -7 18 -10 9 -11 8 -5 -6z"/>
<path d="M4829 2783 c-13 -16 -12 -17 4 -4 16 13 21 21 13 21 -2 0 -10 -8 -17
-17z"/>
<path d="M4909 2783 c-13 -16 -12 -17 4 -4 9 7 17 15 17 17 0 8 -8 3 -21 -13z"/>
<path d="M5016 2787 c3 -10 9 -15 12 -12 3 3 0 11 -7 18 -10 9 -11 8 -5 -6z"/>
<path d="M5050 2781 c0 -6 4 -13 10 -16 6 -3 7 1 4 9 -7 18 -14 21 -14 7z"/>
<path d="M1975 2760 c3 -5 8 -10 11 -10 2 0 4 5 4 10 0 6 -5 10 -11 10 -5 0
-7 -4 -4 -10z"/>
<path d="M3750 2756 c0 -2 8 -10 18 -17 15 -13 16 -12 3 4 -13 16 -21 21 -21
13z"/>
<path d="M2067 2739 c7 -7 15 -10 18 -7 3 3 -2 9 -12 12 -14 6 -15 5 -6 -5z"/>
<path d="M3665 2740 c-3 -6 1 -7 9 -4 18 7 21 14 7 14 -6 0 -13 -4 -16 -10z"/>
<path d="M4679 2733 c-13 -16 -12 -17 4 -4 16 13 21 21 13 21 -2 0 -10 -8 -17
-17z"/>
<path d="M4820 2746 c0 -2 8 -10 18 -17 15 -13 16 -12 3 4 -13 16 -21 21 -21
13z"/>
<path d="M4850 2701 c0 -6 4 -13 10 -16 6 -3 7 1 4 9 -7 18 -14 21 -14 7z"/>
<path d="M4794 2676 c1 -8 5 -18 8 -22 4 -3 5 1 4 10 -1 8 -5 18 -8 22 -4 3
-5 -1 -4 -10z"/>
<path d="M2314 2660 c0 -13 4 -16 10 -10 7 7 7 13 0 20 -6 6 -10 3 -10 -10z"/>
<path d="M2589 2663 c-13 -16 -12 -17 4 -4 9 7 17 15 17 17 0 8 -8 3 -21 -13z"/>
<path d="M2669 2663 c-13 -16 -12 -17 4 -4 16 13 21 21 13 21 -2 0 -10 -8 -17
-17z"/>
<path d="M2749 2663 c-13 -16 -12 -17 4 -4 9 7 17 15 17 17 0 8 -8 3 -21 -13z"/>
<path d="M2829 2663 c-13 -16 -12 -17 4 -4 16 13 21 21 13 21 -2 0 -10 -8 -17
-17z"/>
<path d="M3469 2663 c-13 -16 -12 -17 4 -4 16 13 21 21 13 21 -2 0 -10 -8 -17
-17z"/>
<path d="M3709 2663 c-13 -16 -12 -17 4 -4 16 13 21 21 13 21 -2 0 -10 -8 -17
-17z"/>
<path d="M4590 2676 c0 -2 8 -10 18 -17 15 -13 16 -12 3 4 -13 16 -21 21 -21
13z"/>
<path d="M2199 2653 c-13 -16 -12 -17 4 -4 16 13 21 21 13 21 -2 0 -10 -8 -17
-17z"/>
<path d="M3425 2660 c-3 -6 1 -7 9 -4 18 7 21 14 7 14 -6 0 -13 -4 -16 -10z"/>
<path d="M4820 2666 c0 -2 8 -10 18 -17 15 -13 16 -12 3 4 -13 16 -21 21 -21
13z"/>
<path d="M2390 2606 c0 -2 7 -7 16 -10 8 -3 12 -2 9 4 -6 10 -25 14 -25 6z"/>
<path d="M2715 2591 c-3 -5 -2 -12 3 -15 5 -3 9 1 9 9 0 17 -3 19 -12 6z"/>
<path d="M2949 2583 c-13 -16 -12 -17 4 -4 16 13 21 21 13 21 -2 0 -10 -8 -17
-17z"/>
<path d="M3119 2598 c-5 -18 -6 -38 -1 -34 7 8 12 36 6 36 -2 0 -4 -1 -5 -2z"/>
<path d="M3359 2598 c-5 -18 -6 -38 -1 -34 7 8 12 36 6 36 -2 0 -4 -1 -5 -2z"/>
<path d="M2464 2582 c4 -3 14 -7 22 -8 9 -1 13 0 10 4 -4 3 -14 7 -22 8 -9 1
-13 0 -10 -4z"/>
<path d="M4599 2573 c-13 -16 -12 -17 4 -4 16 13 21 21 13 21 -2 0 -10 -8 -17
-17z"/>
<path d="M4506 2538 c3 -5 10 -6 15 -3 13 9 11 12 -6 12 -8 0 -12 -4 -9 -9z"/>
<path d="M4460 2526 c0 -2 8 -10 18 -17 15 -13 16 -12 3 4 -13 16 -21 21 -21
13z"/>
<path d="M4350 2516 c0 -2 8 -10 18 -17 15 -13 16 -12 3 4 -13 16 -21 21 -21
13z"/>
<path d="M4393 2495 c0 -8 4 -12 9 -9 5 3 6 10 3 15 -9 13 -12 11 -12 -6z"/>
<path d="M4420 2506 c0 -2 8 -10 18 -17 15 -13 16 -12 3 4 -13 16 -21 21 -21
13z"/>
<path d="M4599 2493 c-13 -16 -12 -17 4 -4 16 13 21 21 13 21 -2 0 -10 -8 -17
-17z"/>
<path d="M4396 2462 c-3 -5 1 -9 9 -9 8 0 12 4 9 9 -3 4 -7 8 -9 8 -2 0 -6 -4
-9 -8z"/>
<path d="M4436 2458 c3 -5 10 -6 15 -3 13 9 11 12 -6 12 -8 0 -12 -4 -9 -9z"/>
<path d="M4596 2453 c-6 -14 -5 -15 5 -6 7 7 10 15 7 18 -3 3 -9 -2 -12 -12z"/>
<path d="M4430 2436 c0 -2 8 -10 18 -17 15 -13 16 -12 3 4 -13 16 -21 21 -21
13z"/>
<path d="M4505 2420 c-3 -6 1 -7 9 -4 18 7 21 14 7 14 -6 0 -13 -4 -16 -10z"/>
<path d="M4376 2347 c3 -10 9 -15 12 -12 3 3 0 11 -7 18 -10 9 -11 8 -5 -6z"/>
<path d="M1240 2320 c-9 -6 -10 -10 -3 -10 6 0 15 5 18 10 8 12 4 12 -15 0z"/>
<path d="M3990 2299 c0 -5 5 -7 10 -4 6 3 10 8 10 11 0 2 -4 4 -10 4 -5 0 -10
-5 -10 -11z"/>
<path d="M4330 2280 c0 -5 5 -10 11 -10 5 0 7 5 4 10 -3 6 -8 10 -11 10 -2 0
-4 -4 -4 -10z"/>
<path d="M1430 2276 c0 -2 8 -10 18 -17 15 -13 16 -12 3 4 -13 16 -21 21 -21
13z"/>
<path d="M1056 2258 c3 -5 10 -6 15 -3 13 9 11 12 -6 12 -8 0 -12 -4 -9 -9z"/>
<path d="M1234 2226 c1 -8 5 -18 8 -22 4 -3 5 1 4 10 -1 8 -5 18 -8 22 -4 3
-5 -1 -4 -10z"/>
<path d="M1269 2223 c-13 -16 -12 -17 4 -4 9 7 17 15 17 17 0 8 -8 3 -21 -13z"/>
<path d="M1033 2215 c0 -8 4 -12 9 -9 5 3 6 10 3 15 -9 13 -12 11 -12 -6z"/>
<path d="M1373 2205 c0 -8 4 -12 9 -9 5 3 6 10 3 15 -9 13 -12 11 -12 -6z"/>
<path d="M950 2200 c0 -5 5 -10 11 -10 5 0 7 5 4 10 -3 6 -8 10 -11 10 -2 0
-4 -4 -4 -10z"/>
<path d="M4030 2196 c0 -2 8 -10 18 -17 15 -13 16 -12 3 4 -13 16 -21 21 -21
13z"/>
<path d="M999 2173 c-13 -16 -12 -17 4 -4 9 7 17 15 17 17 0 8 -8 3 -21 -13z"/>
<path d="M1035 2181 c-3 -5 -2 -12 3 -15 5 -3 9 1 9 9 0 17 -3 19 -12 6z"/>
<path d="M986 2138 c3 -5 10 -6 15 -3 13 9 11 12 -6 12 -8 0 -12 -4 -9 -9z"/>
<path d="M3866 2142 c-3 -5 1 -9 9 -9 8 0 12 4 9 9 -3 4 -7 8 -9 8 -2 0 -6 -4
-9 -8z"/>
<path d="M3906 2138 c3 -5 10 -6 15 -3 13 9 11 12 -6 12 -8 0 -12 -4 -9 -9z"/>
<path d="M1706 2118 c3 -5 10 -6 15 -3 13 9 11 12 -6 12 -8 0 -12 -4 -9 -9z"/>
<path d="M989 2103 c-13 -16 -12 -17 4 -4 16 13 21 21 13 21 -2 0 -10 -8 -17
-17z"/>
<path d="M1189 2103 c-13 -16 -12 -17 4 -4 16 13 21 21 13 21 -2 0 -10 -8 -17
-17z"/>
<path d="M3710 2116 c0 -2 8 -10 18 -17 15 -13 16 -12 3 4 -13 16 -21 21 -21
13z"/>
<path d="M1015 2071 c-3 -5 -2 -12 3 -15 5 -3 9 1 9 9 0 17 -3 19 -12 6z"/>
<path d="M3633 2055 c0 -8 4 -12 9 -9 4 3 8 9 8 15 0 5 -4 9 -8 9 -5 0 -9 -7
-9 -15z"/>
<path d="M2026 1978 c3 -4 9 -8 15 -8 5 0 9 4 9 8 0 5 -7 9 -15 9 -8 0 -12 -4
-9 -9z"/>
<path d="M3434 1949 c-3 -6 -2 -15 3 -20 5 -5 9 -1 9 11 0 23 -2 24 -12 9z"/>
<path d="M3710 1956 c0 -2 8 -10 18 -17 15 -13 16 -12 3 4 -13 16 -21 21 -21
13z"/>
<path d="M3750 1926 c0 -2 7 -7 16 -10 8 -3 12 -2 9 4 -6 10 -25 14 -25 6z"/>
<path d="M2215 1900 c3 -5 8 -10 11 -10 2 0 4 5 4 10 0 6 -5 10 -11 10 -5 0
-7 -4 -4 -10z"/>
<path d="M3300 1866 c0 -2 8 -10 18 -17 15 -13 16 -12 3 4 -13 16 -21 21 -21
13z"/>
<path d="M3479 1853 c-13 -16 -12 -17 4 -4 16 13 21 21 13 21 -2 0 -10 -8 -17
-17z"/>
<path d="M3640 1840 c-8 -5 -10 -10 -5 -10 6 0 17 5 25 10 8 5 11 10 5 10 -5
0 -17 -5 -25 -10z"/>
<path d="M3456 1813 c-6 -14 -5 -15 5 -6 7 7 10 15 7 18 -3 3 -9 -2 -12 -12z"/>
<path d="M3310 1796 c0 -2 8 -10 18 -17 15 -13 16 -12 3 4 -13 16 -21 21 -21
13z"/>
<path d="M3359 1798 c-5 -18 -6 -38 -1 -34 7 8 12 36 6 36 -2 0 -4 -1 -5 -2z"/>
<path d="M3380 1786 c0 -2 8 -10 18 -17 15 -13 16 -12 3 4 -13 16 -21 21 -21
13z"/>
<path d="M3479 1773 c-13 -16 -12 -17 4 -4 16 13 21 21 13 21 -2 0 -10 -8 -17
-17z"/>
<path d="M2427 1759 c7 -7 15 -10 18 -7 3 3 -2 9 -12 12 -14 6 -15 5 -6 -5z"/>
<path d="M3475 1741 c-3 -5 -2 -12 3 -15 5 -3 9 1 9 9 0 17 -3 19 -12 6z"/>
<path d="M3140 1706 c0 -2 8 -10 18 -17 15 -13 16 -12 3 4 -13 16 -21 21 -21
13z"/>
<path d="M2705 1680 c-3 -6 1 -7 9 -4 18 7 21 14 7 14 -6 0 -13 -4 -16 -10z"/>
<path d="M2914 1660 c0 -13 4 -16 10 -10 7 7 7 13 0 20 -6 6 -10 3 -10 -10z"/>
<path d="M3033 1666 c0 -15 22 -15 34 0 4 5 4 6 -1 2 -5 -4 -14 -3 -21 2 -8 7
-12 5 -12 -4z"/>
<path d="M2999 1653 c-13 -16 -12 -17 4 -4 9 7 17 15 17 17 0 8 -8 3 -21 -13z"/>
<path d="M3116 1662 c-3 -5 1 -9 9 -9 8 0 12 4 9 9 -3 4 -7 8 -9 8 -2 0 -6 -4
-9 -8z"/>
<path d="M3153 1655 c0 -8 4 -12 9 -9 5 3 6 10 3 15 -9 13 -12 11 -12 -6z"/>
<path d="M3256 1613 c-6 -14 -5 -15 5 -6 7 7 10 15 7 18 -3 3 -9 -2 -12 -12z"/>
<path d="M2895 1560 c3 -5 8 -10 11 -10 2 0 4 5 4 10 0 6 -5 10 -11 10 -5 0
-7 -4 -4 -10z"/>
<path d="M2990 1566 c0 -2 7 -7 16 -10 8 -3 12 -2 9 4 -6 10 -25 14 -25 6z"/>
</g>
</svg>
